<svg xmlns="http://www.w3.org/2000/svg" width="288.64" height="113.701"><defs><radialGradient id="b" cx=".5" cy=".5" fy="1.709" r="2.499" gradientTransform="matrix(.333 0 0 1 .334 0)" gradientUnits="objectBoundingBox"><stop offset=".248" stop-color="#b2006d"/><stop offset=".504" stop-color="#1c1c53"/></radialGradient><filter id="a" x="0" y="0" width="288.64" height="113.701" filterUnits="userSpaceOnUse"><feOffset/><feGaussianBlur stdDeviation="10" result="c"/><feFlood flood-color="#8b8b8b" flood-opacity=".4"/><feComposite operator="in" in2="c"/><feComposite in="SourceGraphic"/></filter></defs><g filter="url(#a)"><path d="M1302.642 560.335l-18.1-.025v6.669l16.9.019a2.113 2.113 0 011.861.906 2.992 2.992 0 01.623 1.943 2.865 2.865 0 01-.623 1.909 2.2 2.2 0 01-1.861.853h-8.6a7.669 7.669 0 00-6.38 2.718 9.276 9.276 0 00-1.92 6.094v10.509l6.852-.011v-7.785a5.041 5.041 0 01.779-2.951 3.932 3.932 0 013.682-1.759h6.79a7.836 7.836 0 006.391-2.952 10.45 10.45 0 002.1-6.562 10.227 10.227 0 00-2.153-6.611 7.724 7.724 0 00-6.341-2.964zm11.188 31.526l6.994-.014V560.4l-6.994-.015zm-56.966-28.551a10.284 10.284 0 00-2.16 6.591 10.559 10.559 0 00.486 3.244 9.294 9.294 0 001.343 2.914 9.732 9.732 0 00-1.4 2.86 12.536 12.536 0 00-.428 3.244 10.305 10.305 0 002.16 6.635 7.93 7.93 0 006.449 2.947l18.084-.025v-6.814l-16.926.02a2.259 2.259 0 01-1.829-.812 3 3 0 01-.632-1.951 3.074 3.074 0 01.389-1.625 2.262 2.262 0 011.109-1.1h17.889v-6.818h-16.928a2.125 2.125 0 01-1.829-.812 3.006 3.006 0 01-.632-1.955 3.259 3.259 0 01.632-2 2.229 2.229 0 011.829-.851l16.926.01v-6.664l-18.084-.024a7.814 7.814 0 00-6.449 2.986zm129.215 28.44l15.2-.02v-6.78l-14.067.015c-1.644 0-2.958-.944-3.949-2.87a13.723 13.723 0 01-1.314-6.279 12.522 12.522 0 011.314-6.031 4.346 4.346 0 013.949-2.69l14.067.015v-6.591l-15.2-.024a9.766 9.766 0 00-8.6 4.942 19.5 19.5 0 00-2.908 10.948 18.516 18.516 0 002.86 10.575 9.835 9.835 0 008.648 4.79zm-147.953-38.966v19.271c0 2.342-2.067 3.943-5.038 4.055a7.232 7.232 0 011.9.347c1.979.627 3.14 1.883 3.14 3.714v19.261c0 2.234 2.147 3.543 6.272 3.528l4.613-.012v-1.768h-.9c-4.116.009-4.861-.67-4.861-3.531v-17.2c0-2.343-2.315-4.114-5.447-4.344 3.132-.227 5.447-2 5.447-4.341v-17.19c0-2.864.825-3.546 4.861-3.534h.9v-1.775l-4.613-.009c-4.127-.009-6.274 1.3-6.274 3.528zm201.287 31.4a3.77 3.77 0 103.77 3.77 3.77 3.77 0 00-3.77-3.774zm17.277-12.125v-19.275c0-2.228-2.147-3.537-6.272-3.525l-4.614.009v1.775h.905c4.036-.012 4.861.67 4.861 3.534v17.195c0 2.342 2.315 4.114 5.447 4.341-3.132.229-5.447 2-5.447 4.344v17.2c0 2.86-.745 3.54-4.861 3.531h-.905v1.768l4.614.012c4.125.016 6.272-1.294 6.272-3.528v-19.269c0-1.83 1.161-3.087 3.14-3.714a7.232 7.232 0 011.9-.347c-2.974-.11-5.04-1.71-5.04-4.055zm-133.968-5.009h7.072v24.782l6.887-.009V567.06h7.1v-6.635l-21.06-.024zm100.616 24.65l6.858-.01v-31.133h-6.858v12.121l-12.374-.01v-12.135l-6.878-.01v31.2h6.878v-12.33h12.374zm-75.245-28.279a10.222 10.222 0 00-2.131 6.532 11.011 11.011 0 00.467 3.225 9.651 9.651 0 001.333 2.879 9.925 9.925 0 00-1.372 2.841 12.327 12.327 0 00-.428 3.22 10.236 10.236 0 002.131 6.571 7.731 7.731 0 006.323 2.924l17.793-.025v-6.751l-16.645.015a2.194 2.194 0 01-1.8-.807 2.944 2.944 0 01-.623-1.936 3.011 3.011 0 01.389-1.605 2.2 2.2 0 011.08-1.089h17.6v-6.761l-16.645-.005a2.094 2.094 0 01-1.8-.8 2.984 2.984 0 01-.623-1.941 3.206 3.206 0 01.623-1.989 2.2 2.2 0 011.8-.842l16.645.01v-6.61l-17.793-.029a7.661 7.661 0 00-6.325 2.969z" transform="translate(-1203.09 -519.26)" fill="url(#b)"/></g></svg>