<svg xmlns="http://www.w3.org/2000/svg" width="296.64" height="132.588"><defs><radialGradient id="b" cx=".5" cy=".5" fy="1.709" r="2.499" gradientTransform="matrix(.333 0 0 1 .334 0)" gradientUnits="objectBoundingBox"><stop offset=".248" stop-color="#b2006d"/><stop offset=".504" stop-color="#1c1c53"/></radialGradient><filter id="a" x="4" y="0" width="288.64" height="113.701" filterUnits="userSpaceOnUse"><feOffset/><feGaussianBlur stdDeviation="10" result="c"/><feFlood flood-color="#8b8b8b" flood-opacity=".4"/><feComposite operator="in" in2="c"/><feComposite in="SourceGraphic"/></filter></defs><g transform="translate(.005 -.001)" filter="url(#a)"><path d="M1302.642 560.335l-18.1-.025v6.669l16.9.019a2.113 2.113 0 011.861.906 2.992 2.992 0 01.623 1.943 2.865 2.865 0 01-.623 1.909 2.2 2.2 0 01-1.861.853h-8.6a7.669 7.669 0 00-6.38 2.718 9.276 9.276 0 00-1.92 6.094v10.509l6.852-.011v-7.785a5.041 5.041 0 01.779-2.951 3.932 3.932 0 013.682-1.759h6.79a7.836 7.836 0 006.391-2.952 10.45 10.45 0 002.1-6.562 10.227 10.227 0 00-2.153-6.611 7.724 7.724 0 00-6.341-2.964zm11.188 31.526l6.994-.014V560.4l-6.994-.015zm-56.966-28.551a10.284 10.284 0 00-2.16 6.591 10.559 10.559 0 00.486 3.244 9.294 9.294 0 001.343 2.914 9.732 9.732 0 00-1.4 2.86 12.536 12.536 0 00-.428 3.244 10.305 10.305 0 002.16 6.635 7.93 7.93 0 006.449 2.947l18.084-.025v-6.814l-16.926.02a2.259 2.259 0 01-1.829-.812 3 3 0 01-.632-1.951 3.074 3.074 0 01.389-1.625 2.262 2.262 0 011.109-1.1h17.889v-6.818h-16.928a2.125 2.125 0 01-1.829-.812 3.006 3.006 0 01-.632-1.955 3.259 3.259 0 01.632-2 2.229 2.229 0 011.829-.851l16.926.01v-6.664l-18.084-.024a7.814 7.814 0 00-6.449 2.986zm129.215 28.44l15.2-.02v-6.78l-14.067.015c-1.644 0-2.958-.944-3.949-2.87a13.723 13.723 0 01-1.314-6.279 12.522 12.522 0 011.314-6.031 4.346 4.346 0 013.949-2.69l14.067.015v-6.591l-15.2-.024a9.766 9.766 0 00-8.6 4.942 19.5 19.5 0 00-2.908 10.948 18.516 18.516 0 002.86 10.575 9.835 9.835 0 008.648 4.79zm-147.953-38.966v19.271c0 2.342-2.067 3.943-5.038 4.055a7.232 7.232 0 011.9.347c1.979.627 3.14 1.883 3.14 3.714v19.261c0 2.234 2.147 3.543 6.272 3.528l4.613-.012v-1.768h-.9c-4.116.009-4.861-.67-4.861-3.531v-17.2c0-2.343-2.315-4.114-5.447-4.344 3.132-.227 5.447-2 5.447-4.341v-17.19c0-2.864.825-3.546 4.861-3.534h.9v-1.775l-4.613-.009c-4.127-.009-6.274 1.3-6.274 3.528zm201.287 31.4a3.77 3.77 0 103.77 3.77 3.77 3.77 0 00-3.77-3.774zm17.277-12.125v-19.275c0-2.228-2.147-3.537-6.272-3.525l-4.614.009v1.775h.905c4.036-.012 4.861.67 4.861 3.534v17.195c0 2.342 2.315 4.114 5.447 4.341-3.132.229-5.447 2-5.447 4.344v17.2c0 2.86-.745 3.54-4.861 3.531h-.905v1.768l4.614.012c4.125.016 6.272-1.294 6.272-3.528v-19.269c0-1.83 1.161-3.087 3.14-3.714a7.232 7.232 0 011.9-.347c-2.974-.11-5.04-1.71-5.04-4.055zm-133.968-5.009h7.072v24.782l6.887-.009V567.06h7.1v-6.635l-21.06-.024zm100.616 24.65l6.858-.01v-31.133h-6.858v12.121l-12.374-.01v-12.135l-6.878-.01v31.2h6.878v-12.33h12.374zm-75.245-28.279a10.222 10.222 0 00-2.131 6.532 11.011 11.011 0 00.467 3.225 9.651 9.651 0 001.333 2.879 9.925 9.925 0 00-1.372 2.841 12.327 12.327 0 00-.428 3.22 10.236 10.236 0 002.131 6.571 7.731 7.731 0 006.323 2.924l17.793-.025v-6.751l-16.645.015a2.194 2.194 0 01-1.8-.807 2.944 2.944 0 01-.623-1.936 3.011 3.011 0 01.389-1.605 2.2 2.2 0 011.08-1.089h17.6v-6.761l-16.645-.005a2.094 2.094 0 01-1.8-.8 2.984 2.984 0 01-.623-1.941 3.206 3.206 0 01.623-1.989 2.2 2.2 0 011.8-.842l16.645.01v-6.61l-17.793-.029a7.661 7.661 0 00-6.325 2.969z" transform="translate(-1199.09 -519.26)" fill="url(#b)"/></g><path d="M143.852 100.896v-4.061h2.324v2.175zM.189 111.585v-14.75h2.238v12.741h7.102v2.009zm12.116 0v-14.75h9.426v2.009h-7.189v4.309h6.132v1.989h-6.132v4.434h7.189v2.009zm20.154-12.741v4.5h6.133v2.01h-6.133v6.235h-2.237v-14.75h9.427v2.009zm15.168 12.866a5 5 0 01-5.283-5.1v-9.778h2.237v9.674a3.059 3.059 0 106.112 0v-9.674h2.237v9.778a5.018 5.018 0 01-5.303 5.1zm14.704-12.866v12.741h-2.237V98.844h-4.061v-2.009h10.358v2.009zm12.021 12.866a5 5 0 01-5.283-5.1v-9.778h2.238v9.674a3.058 3.058 0 106.111 0v-9.674h2.238v9.778a5.018 5.018 0 01-5.304 5.1zm17.444-.125l-3.108-6.214h-2.8v6.214H83.65v-14.75h5.721a4.219 4.219 0 014.578 4.309 3.873 3.873 0 01-2.942 3.915l3.4 6.526zm-2.589-12.741h-3.315v4.62h3.315a2.318 2.318 0 100-4.62zm22.625 11.352a5.264 5.264 0 01-3.812 1.388h-5.179v-14.75h5.179a5.263 5.263 0 013.812 1.388c1.6 1.6 1.491 3.75 1.491 5.884s.104 4.496-1.491 6.09zm-1.533-10.359a3.191 3.191 0 00-2.507-.994h-2.714v10.733h2.714a3.191 3.191 0 002.507-.994c.767-.85.787-2.446.787-4.475s-.025-3.419-.787-4.269zm6.703 11.748v-14.75h9.427v2.009h-7.189v4.309h6.132v1.989h-6.132v4.434h7.189v2.009zm18.099 0v-14.75h2.238v12.741h7.105v2.009zm14.9 0v-14.75h2.238v14.75zm15.481 0l-6.817-10.379v10.379h-2.237v-14.75h2.051l6.815 10.358V96.835h2.238v14.75zm8.513-12.741v4.5h6.132v2.01h-6.132v6.235h-2.238v-14.75h9.427v2.009zm18.475 11.291a5.578 5.578 0 01-7.769 0c-1.45-1.45-1.429-3.087-1.429-5.925s-.021-4.474 1.429-5.925a5.579 5.579 0 017.769 0c1.451 1.45 1.409 3.086 1.409 5.925s.042 4.475-1.409 5.925zm-1.7-10.5a3.1 3.1 0 00-4.392 0c-.725.788-.87 1.616-.87 4.578s.145 3.792.87 4.579a3.1 3.1 0 004.392 0c.725-.787.87-1.616.87-4.579s-.144-3.794-.869-4.581zm14.936 11.95l-3.108-6.214h-2.8v6.214h-2.238v-14.75h5.718a4.219 4.219 0 014.578 4.309 3.873 3.873 0 01-2.942 3.915l3.4 6.526zm-2.589-12.741h-3.315v4.62h3.315a2.318 2.318 0 100-4.62zm19.173 12.741v-9.862l-3.4 7.189h-1.657l-3.481-7.189v9.862h-2.235v-14.75h2.237l4.31 9.178 4.226-9.178h2.237v14.75zm14.923 0l-1.015-2.962h-5.821l-1.015 2.962h-2.383l5.407-14.75h1.8l5.411 14.75zm-3.874-11.415l-2.3 6.547h4.537zm12.897-1.326v12.741h-2.237V98.844h-4.06v-2.009h10.36v2.009zm6.836 12.741v-14.75h2.237v14.75zm15.642.664l-1.472-1.471a5.333 5.333 0 01-3.087.932 5.277 5.277 0 01-3.874-1.575c-1.45-1.45-1.43-3.087-1.43-5.925s-.02-4.474 1.43-5.925a5.579 5.579 0 017.769 0c1.451 1.45 1.409 3.086 1.409 5.925 0 2.507.021 4.04-.953 5.366l1.45 1.43zm-2.363-12.617a3.1 3.1 0 00-4.392 0c-.725.788-.87 1.616-.87 4.578s.144 3.792.87 4.579a3.011 3.011 0 002.2.911 2.573 2.573 0 001.513-.476l-1.553-1.554 1.243-1.243 1.429 1.43a8.512 8.512 0 00.435-3.647c-.004-2.962-.149-3.791-.875-4.578zm11.707 12.078a5 5 0 01-5.283-5.1v-9.778h2.237v9.674a3.059 3.059 0 106.112 0v-9.674h2.238v9.778a5.018 5.018 0 01-5.304 5.1zm9.156-.125v-14.75h9.427v2.009h-7.189v4.309h6.132v1.989h-6.132v4.434h7.189v2.009zM0 132.464v-14.751h2.238v12.741h7.106v2.009zm11.892 0v-14.751h9.426v2.009h-7.189v4.309h6.132v1.99h-6.132v4.434h7.189v2.009zm28.237 0v-9.858l-3.4 7.189H35.07l-3.48-7.189v9.862h-2.238v-14.755h2.238l4.309 9.178 4.226-9.178h2.245v14.751zm6.07 0v-14.751h9.427v2.009h-7.189v4.309h6.132v1.99h-6.132v4.434h7.189v2.009zm13.064 0v-14.751h2.238v14.751zm6.166 0v-14.751h2.238v12.741h7.106v2.009zm12.011 0v-14.751h2.238v12.741h7.106v2.009zm12.01 0v-14.751h9.427v2.009h-7.189v4.309h6.132v1.99h-6.132v4.434h7.189v2.009zm17.675.124a5 5 0 01-5.283-5.1v-9.778h2.237v9.674a3.059 3.059 0 106.112 0v-9.674h2.234v9.778a5.018 5.018 0 01-5.3 5.1zm17.211-.124l-3.107-6.216h-2.793v6.216h-2.237v-14.751h5.718a4.219 4.219 0 014.578 4.309 3.874 3.874 0 01-2.942 3.916l3.4 6.526zm-2.589-12.741h-3.311v4.62h3.315a2.318 2.318 0 100-4.62zm22.168 11.353a5.268 5.268 0 01-3.812 1.388h-5.179v-14.751h5.179a5.268 5.268 0 013.812 1.388c1.6 1.6 1.491 3.75 1.491 5.884s.104 4.496-1.491 6.091zm-1.533-10.359a3.191 3.191 0 00-2.507-.995h-2.714v10.732h2.714a3.191 3.191 0 002.507-.995c.767-.85.787-2.444.787-4.474s-.02-3.419-.787-4.268zm6.472 11.747v-14.751h9.427v2.009h-7.189v4.309h6.133v1.99h-6.133v4.434h7.189v2.009zm17.638 0v-14.751h2.238v12.741h7.106v2.009zm8.513-10.691v-4.061h2.321v2.175zm5.92 10.691v-14.751h2.238v14.751zm15.26 0l-6.816-10.379v10.379h-2.238v-14.751h2.051l6.816 10.359v-10.359h2.236v14.751zm15.108 0l-6.816-10.379v10.379h-2.235v-14.751h2.051l6.815 10.359v-10.359h2.234v14.751zm14.705-1.451a5.578 5.578 0 01-7.769 0c-1.45-1.449-1.43-3.087-1.43-5.924s-.02-4.475 1.43-5.925a5.578 5.578 0 017.769 0c1.45 1.45 1.409 3.087 1.409 5.925s.046 4.476-1.409 5.924zm-1.7-10.5a3.1 3.1 0 00-4.392 0c-.725.787-.871 1.616-.871 4.579s.145 3.791.871 4.578a3.1 3.1 0 004.392 0c.725-.787.87-1.616.87-4.578s-.143-3.796-.868-4.583zm11.107 11.951h-1.74l-4.848-14.751h2.321l3.4 10.731 3.4-10.731h2.361zm15.222 0l-1.015-2.963h-5.821l-1.015 2.963h-2.383l5.407-14.751h1.8l5.407 14.751zm-3.874-11.415l-2.3 6.547h4.537zm12.097-1.327v12.741h-2.238v-12.741h-4.06v-2.009h10.359v2.009zm6.609 12.742v-14.751h2.238v14.751zm14.751-1.451a5.578 5.578 0 01-7.769 0c-1.45-1.449-1.43-3.087-1.43-5.924s-.02-4.475 1.43-5.925a5.578 5.578 0 017.769 0c1.45 1.45 1.409 3.087 1.409 5.925s.041 4.476-1.409 5.924zm-1.7-10.5a3.1 3.1 0 00-4.392 0c-.725.787-.87 1.616-.87 4.579s.145 3.791.87 4.578a3.1 3.1 0 004.392 0c.725-.787.87-1.616.87-4.578s-.144-3.796-.87-4.583zm15.473 11.951l-6.816-10.379v10.379h-2.234v-14.751h2.05l6.816 10.359v-10.359h2.237v14.751z" fill="#1c1c53"/></svg>