<svg xmlns="http://www.w3.org/2000/svg" width="45.062" height="45.062"><defs><style>.cls-2{fill:#fff}</style></defs><g id="Groupe_1954" data-name="Groupe 1954" transform="translate(-586 -2710.568)"><circle id="Ellipse_44" data-name="Ellipse 44" cx="22.531" cy="22.531" r="22.531" transform="translate(586 2710.568)" fill="#1c1c53"/><g id="EPI-LOGO-SIGNATURE-2018-QUADRI" transform="translate(595.743 2722.747)"><path id="Tracé_2120" data-name="Tracé 2120" class="cls-2" d="M43.942 64.166v-7.775c0-.9.606-1.427 1.77-1.422h1.3v.716h-.256c-1.139 0-1.371.271-1.371 1.426v6.939a1.7 1.7 0 01-1.536 1.75 1.706 1.706 0 011.537 1.752v6.938c0 1.154.21 1.428 1.372 1.425h.255v.714l-1.3.005c-1.164.006-1.77-.522-1.77-1.423V67.44a1.521 1.521 0 00-.886-1.5 1.5 1.5 0 00-.536-.14 1.508 1.508 0 001.421-1.634z" transform="translate(-42.52 -54.969)"/><path id="Tracé_2121" data-name="Tracé 2121" class="cls-2" d="M440.614 65.811a1.516 1.516 0 00-.536.14 1.521 1.521 0 00-.886 1.5v7.77c0 .9-.606 1.429-1.77 1.423l-1.3-.005v-.714h.255c1.161 0 1.372-.27 1.372-1.425v-6.937a1.706 1.706 0 011.537-1.752 1.7 1.7 0 01-1.537-1.751v-6.937c0-1.155-.233-1.431-1.372-1.426h-.255v-.716h1.3c1.164-.005 1.77.523 1.77 1.422v7.774a1.508 1.508 0 001.422 1.634z" transform="translate(-416.087 -54.979)"/><path id="Tracé_2122" data-name="Tracé 2122" class="cls-2" d="M177.913 152.4a3.3 3.3 0 01-2.684-1.227 4.289 4.289 0 01-.9-2.761 5.211 5.211 0 01.178-1.35 4.067 4.067 0 01.583-1.19 3.874 3.874 0 01-.559-1.212 4.386 4.386 0 01-.2-1.35 4.279 4.279 0 01.9-2.743 3.251 3.251 0 012.684-1.245l7.526.01v2.768h-7.044a.928.928 0 00-.761.354 1.356 1.356 0 00-.263.834 1.252 1.252 0 00.263.814.885.885 0 00.761.338h7.044v2.836h-7.445a.939.939 0 00-.462.458 1.276 1.276 0 00-.162.676 1.25 1.25 0 00.263.812.941.941 0 00.761.338l7.044-.008v2.835z" transform="translate(-167.621 -135.027)"/></g></g></svg>