<?xml version="1.0" encoding="utf-8"?>
<!-- Generator: Adobe Illustrator 24.0.0, SVG Export Plug-In . SVG Version: 6.00 Build 0)  -->
<svg version="1.1" id="Calque_1" xmlns="http://www.w3.org/2000/svg" xmlns:xlink="http://www.w3.org/1999/xlink" x="0px" y="0px"
	 viewBox="0 0 34.5 43.1" style="enable-background:new 0 0 34.5 43.1;" xml:space="preserve">
<style type="text/css">
	.st0{fill:none;}
	.st1{fill:#DA6C37;}
</style>
<circle class="st0" cx="23.3" cy="8.5" r="4.5"/>
<circle class="st0" cx="12.3" cy="4.5" r="4.5"/>
<path class="st1" d="M1.5,26.4V15.1c0-0.4-0.3-0.8-0.8-0.8S0,14.7,0,15.1v11.7c0,0.3,0.1,0.5,0.4,0.6L13,35v7.4
	c0,0.4,0.3,0.8,0.8,0.8s0.8-0.3,0.8-0.8v-7.8c0-0.3-0.1-0.5-0.4-0.6L1.5,26.4z M33.8,14.4c-0.4,0-0.8,0.3-0.8,0.8v11.2l-12.6,7.6
	C20.2,34,20,34.3,20,34.6v7.8c0,0.4,0.3,0.8,0.8,0.8s0.8-0.3,0.8-0.8V35l12.6-7.6c0.2-0.1,0.4-0.4,0.4-0.6V15.1
	C34.5,14.7,34.2,14.4,33.8,14.4z M23.3,13c2.5,0,4.5-2,4.5-4.5S25.7,4,23.3,4c-1.8,0-3.4,1.1-4.1,2.7l-2.6-1.1
	c0.1-0.4,0.2-0.7,0.2-1.1c0-2.5-2-4.5-4.5-4.5S7.8,2,7.8,4.5c0,1.8,1.1,3.4,2.7,4.1v4.8c-2.1,0.4-3.7,2.2-3.7,4.4
	c0,2.5,2,4.5,4.5,4.5s4.5-2,4.5-4.5c0-2.2-1.7-4.1-3.8-4.4V9c0.1,0,0.2,0,0.3,0c1.6,0,2.9-0.8,3.7-2l2.8,1.2c0,0.1,0,0.2,0,0.4
	C18.8,11,20.8,13,23.3,13z M23.3,5.5c1.7,0,3,1.3,3,3s-1.3,3-3,3s-3-1.3-3-3S21.6,5.5,23.3,5.5z M14.3,17.8c0,1.7-1.3,3-3,3
	s-3-1.3-3-3s1.3-3,3-3S14.3,16.1,14.3,17.8z M12.3,7.5c-1.7,0-3-1.3-3-3s1.3-3,3-3s3,1.3,3,3S13.9,7.5,12.3,7.5z"/>
</svg>
