<?xml version="1.0" encoding="utf-8"?>
<!-- Generator: Adobe Illustrator 24.0.0, SVG Export Plug-In . SVG Version: 6.00 Build 0)  -->
<svg version="1.1" id="Calque_1" xmlns="http://www.w3.org/2000/svg" xmlns:xlink="http://www.w3.org/1999/xlink" x="0px" y="0px"
	 viewBox="0 0 44.5 29.2" style="enable-background:new 0 0 44.5 29.2;" xml:space="preserve">
<style type="text/css">
	.st0{fill:none;}
	.st1{fill:#DA6C37;}
</style>
<ellipse class="st0" cx="16.2" cy="25.2" rx="4" ry="4"/>
<ellipse class="st0" cx="36.4" cy="25.2" rx="4" ry="4"/>
<g>
	<path class="st1" d="M16.2,21.1c-2.2,0-4,1.8-4,4s1.8,4,4,4c2.2,0,4-1.8,4-4S18.4,21.1,16.2,21.1z M16.2,27.7
		c-1.4,0-2.5-1.1-2.5-2.5s1.1-2.5,2.5-2.5c1.4,0,2.5,1.1,2.5,2.5S17.6,27.7,16.2,27.7z"/>
	<path class="st1" d="M36.4,21.1c-2.2,0-4,1.8-4,4s1.8,4,4,4s4-1.8,4-4S38.7,21.1,36.4,21.1z M36.4,27.7c-1.4,0-2.5-1.1-2.5-2.5
		s1.1-2.5,2.5-2.5s2.5,1.1,2.5,2.5S37.8,27.7,36.4,27.7z"/>
	<path class="st1" d="M44.3,0.3C44.2,0.1,43.9,0,43.7,0H21.4c-0.4,0-0.8,0.3-0.8,0.8s0.3,0.8,0.8,0.8h21.3l-4.5,13.1H15L9.8,0.5
		C9.7,0.2,9.4,0,9.1,0H0.8C0.3,0,0,0.3,0,0.8s0.3,0.8,0.8,0.8h7.8l5.2,14.1c0.1,0.3,0.4,0.5,0.7,0.5h24.2c0.3,0,0.6-0.2,0.7-0.5
		l5-14.6C44.5,0.8,44.5,0.5,44.3,0.3z"/>
</g>
</svg>
