<svg xmlns="http://www.w3.org/2000/svg" width="46.999" height="30.046" viewBox="0 0 46.999 30.046"><defs><style>.a{fill:none;stroke-linecap:round;stroke-linejoin:round;}.b,.c{stroke:none;}.c{fill:#da6c37;}</style></defs><g class="a" transform="translate(15472.001 -1.002)"><path class="b" d="M-15462.752,31.048A9.246,9.246,0,0,1-15472,21.8a9.247,9.247,0,0,1,5.456-8.435,11.489,11.489,0,0,1-.062-1.195A11.174,11.174,0,0,1-15455.433,1a11.163,11.163,0,0,1,9.543,5.361,8.825,8.825,0,0,1,3.55-.74,8.863,8.863,0,0,1,8.655,6.952A9.246,9.246,0,0,1-15425,21.8a9.245,9.245,0,0,1-9.245,9.245Z"/><path class="c" d="M -15434.2470703125 29.54814720153809 C -15429.9765625 29.54814720153809 -15426.501953125 26.07360649108887 -15426.501953125 21.80282592773438 C -15426.501953125 17.71238708496094 -15429.6962890625 14.31649684906006 -15433.7744140625 14.07176685333252 C -15434.4443359375 14.03156661987305 -15435.005859375 13.55152702331543 -15435.1494140625 12.89621639251709 C -15435.50390625 11.28473663330078 -15436.408203125 9.819716453552246 -15437.6962890625 8.771026611328125 C -15439.0205078125 7.692566871643066 -15440.626953125 7.1225266456604 -15442.33984375 7.1225266456604 C -15443.365234375 7.1225266456604 -15444.357421875 7.329216957092285 -15445.2880859375 7.736856937408447 C -15445.482421875 7.822325706481934 -15445.6875 7.863143920898438 -15445.888671875 7.863143920898438 C -15446.3984375 7.863143920898438 -15446.890625 7.602963924407959 -15447.169921875 7.144006729125977 C -15448.0185546875 5.752536773681641 -15449.2138671875 4.588496685028076 -15450.626953125 3.777746677398682 C -15452.08203125 2.943016767501831 -15453.7431640625 2.501806735992432 -15455.4326171875 2.501806735992432 C -15460.767578125 2.501806735992432 -15465.107421875 6.840316772460938 -15465.107421875 12.17307662963867 C -15465.107421875 12.51682662963867 -15465.0888671875 12.86629676818848 -15465.052734375 13.21177673339844 C -15464.9853515625 13.8555965423584 -15465.3388671875 14.46992683410645 -15465.9296875 14.73552703857422 C -15468.70703125 15.98501682281494 -15470.5009765625 18.75910758972168 -15470.5009765625 21.80282592773438 C -15470.5009765625 26.07360649108887 -15467.0244140625 29.54814720153809 -15462.751953125 29.54814720153809 L -15434.2470703125 29.54814720153809 M -15434.2470703125 31.04814720153809 L -15462.751953125 31.04814720153809 C -15467.8623046875 31.04814720153809 -15472.0009765625 26.90891647338867 -15472.0009765625 21.80282592773438 C -15472.0009765625 18.04742622375488 -15469.76171875 14.81493663787842 -15466.544921875 13.36760711669922 C -15466.5859375 12.9749870300293 -15466.607421875 12.57678699493408 -15466.607421875 12.17307662963867 C -15466.607421875 6.003056526184082 -15461.6025390625 1.001806735992432 -15455.4326171875 1.001806735992432 C -15451.390625 1.001806735992432 -15447.8505859375 3.147856712341309 -15445.8896484375 6.362946510314941 C -15444.802734375 5.886726856231689 -15443.6015625 5.6225266456604 -15442.33984375 5.6225266456604 C -15438.0986328125 5.6225266456604 -15434.5576171875 8.599146842956543 -15433.6845703125 12.5744571685791 C -15428.8408203125 12.86514663696289 -15425.001953125 16.88558578491211 -15425.001953125 21.80282592773438 C -15425.001953125 26.90891647338867 -15429.1416015625 31.04814720153809 -15434.2470703125 31.04814720153809 Z"/></g></svg>