<?xml version="1.0" encoding="utf-8"?>
<!-- Generator: Adobe Illustrator 24.0.0, SVG Export Plug-In . SVG Version: 6.00 Build 0)  -->
<svg version="1.1" id="Calque_1" xmlns="http://www.w3.org/2000/svg" xmlns:xlink="http://www.w3.org/1999/xlink" x="0px" y="0px"
	 viewBox="0 0 41.1 43.4" style="enable-background:new 0 0 41.1 43.4;" xml:space="preserve">
<style type="text/css">
	.st0{fill:none;}
	.st1{fill:#DA6C37;}
</style>
<ellipse class="st0" cx="20.2" cy="11.4" rx="4" ry="4"/>
<ellipse class="st0" cx="29" cy="4" rx="4" ry="4"/>
<ellipse class="st0" cx="12.1" cy="4" rx="4" ry="4"/>
<ellipse class="st0" cx="4" cy="11.4" rx="4" ry="4"/>
<ellipse class="st0" cx="37" cy="11.4" rx="4" ry="4"/>
<path class="st1" d="M37,7.3c-2.2,0-4,1.8-4,4c0,2,1.5,3.7,3.4,4v4.1l-15.7,8.7v-5.5l9.2-5.1V8C31.6,7.6,33,6,33,4c0-2.2-1.8-4-4-4
	c-2.2,0-4,1.8-4,4c0,2,1.5,3.7,3.4,4v8.6l-7.7,4.2v-5.5c2-0.3,3.5-1.9,3.5-4c0-2.2-1.8-4-4-4c-2.2,0-4,1.8-4,4c0,1.9,1.3,3.4,3,3.9
	v5.3l-6.6-3.9V8c2-0.3,3.5-1.9,3.5-4c0-2.2-1.8-4-4-4s-4,1.8-4,4c0,1.9,1.3,3.4,3,3.9v9.6l8.1,4.8v5.8L4.5,19.4v-4.1
	c2-0.3,3.5-1.9,3.5-4c0-2.2-1.8-4-4-4c-2.2,0-4,1.8-4,4c0,1.9,1.3,3.4,3,3.9v5l16.1,9.5v12.9c0,0.4,0.3,0.8,0.8,0.8s0.8-0.3,0.8-0.8
	V29.8l17.2-9.5v-5c1.8-0.4,3.2-2,3.2-3.9C41.1,9.1,39.3,7.3,37,7.3z M26.4,4c0-1.4,1.1-2.5,2.5-2.5c1.4,0,2.5,1.1,2.5,2.5
	c0,1.4-1.1,2.5-2.5,2.5C27.6,6.6,26.4,5.4,26.4,4z M9.6,4c0-1.4,1.1-2.5,2.5-2.5s2.5,1.1,2.5,2.5c0,1.4-1.1,2.5-2.5,2.5
	S9.6,5.4,9.6,4z M1.5,11.4C1.5,10,2.6,8.8,4,8.8c1.4,0,2.5,1.1,2.5,2.5c0,1.4-1.1,2.5-2.5,2.5C2.6,13.9,1.5,12.8,1.5,11.4z
	 M17.6,11.4c0-1.4,1.1-2.5,2.5-2.5c1.4,0,2.5,1.1,2.5,2.5c0,1.4-1.1,2.5-2.5,2.5C18.8,13.9,17.6,12.8,17.6,11.4z M37,13.9
	c-1.4,0-2.5-1.1-2.5-2.5c0-1.4,1.1-2.5,2.5-2.5s2.5,1.1,2.5,2.5C39.6,12.8,38.4,13.9,37,13.9z"/>
</svg>
