<?xml version="1.0" encoding="utf-8"?>
<!-- Generator: Adobe Illustrator 24.0.0, SVG Export Plug-In . SVG Version: 6.00 Build 0)  -->
<svg version="1.1" id="Calque_1" xmlns="http://www.w3.org/2000/svg" xmlns:xlink="http://www.w3.org/1999/xlink" x="0px" y="0px"
	 viewBox="0 0 53.7 24.3" style="enable-background:new 0 0 53.7 24.3;" xml:space="preserve">
<style type="text/css">
	.st0{fill:none;}
	.st1{fill:#DA6C37;}
</style>
<ellipse class="st0" cx="49" cy="13.3" rx="4.7" ry="4.7"/>
<path class="st1" d="M49,8.6c-2.4,0-4.3,1.8-4.6,4c0,0-0.1,0-0.1,0h-12L30.7,7c-0.1-0.3-0.4-0.5-0.7-0.6c-0.3,0-0.6,0.2-0.7,0.5
	l-4.1,13.4L21.3,0.6C21.2,0.3,20.9,0,20.6,0c-0.3,0-0.7,0.2-0.8,0.5l-5.1,16.4l-1.6-3.8c-0.1-0.3-0.4-0.5-0.7-0.5H0.8
	c-0.4,0-0.8,0.3-0.8,0.8s0.3,0.8,0.8,0.8h11.2l2.2,5.3c0.1,0.3,0.4,0.5,0.7,0.5c0.3,0,0.6-0.2,0.7-0.5l4.9-15.5l3.9,19.9
	c0.1,0.3,0.4,0.6,0.7,0.6c0,0,0,0,0,0c0.3,0,0.6-0.2,0.7-0.5L30,9.9l1,3.6c0.1,0.3,0.4,0.6,0.7,0.6h12.6c0,0,0.1,0,0.1,0
	c0.4,2.2,2.3,3.9,4.6,3.9c2.6,0,4.7-2.1,4.7-4.7S51.6,8.6,49,8.6z M49,16.5c-1.8,0-3.2-1.4-3.2-3.2s1.4-3.2,3.2-3.2s3.2,1.4,3.2,3.2
	S50.8,16.5,49,16.5z"/>
</svg>
