<?xml version="1.0" encoding="utf-8"?>
<!-- Generator: Adobe Illustrator 24.0.0, SVG Export Plug-In . SVG Version: 6.00 Build 0)  -->
<svg version="1.1" id="Calque_1" xmlns="http://www.w3.org/2000/svg" xmlns:xlink="http://www.w3.org/1999/xlink" x="0px" y="0px"
	 viewBox="0 0 38.6 34.3" style="enable-background:new 0 0 38.6 34.3;" xml:space="preserve">
<style type="text/css">
	.st0{fill:none;}
	.st1{fill:#DA6C37;}
</style>
<path class="st0" d="M6,34.3c-3.3,0-6-2.7-6-6V7.6c0-3.3,2.7-6,6-6h9.7c1.7-1.9,4.7-2.1,6.6-0.4c0.1,0.1,0.3,0.2,0.4,0.4h9.9
	c3.3,0,6,2.7,6,6v20.7c0,3.3-2.7,6-6,6H6z"/>
<ellipse class="st0" cx="26" cy="13.7" rx="4.7" ry="4.7"/>
<ellipse class="st0" cx="12.9" cy="13.7" rx="4.7" ry="4.7"/>
<path class="st1" d="M32.6,1.6h-9.9c-0.9-1-2.1-1.6-3.5-1.6s-2.6,0.6-3.5,1.6H6c-3.3,0-6,2.7-6,6v20.7c0,3.3,2.7,6,6,6h26.6
	c3.3,0,6-2.7,6-6V7.6C38.6,4.2,36,1.6,32.6,1.6z M37.1,28.3c0,2.5-2,4.5-4.5,4.5H6c-2.5,0-4.5-2-4.5-4.5V7.6c0-2.5,2-4.5,4.5-4.5
	h10.4l0.4-0.5c0.6-0.7,1.5-1.1,2.4-1.1s1.8,0.4,2.4,1.1L22,3.1h10.6c2.5,0,4.5,2,4.5,4.5V28.3z M26,9c-2.6,0-4.7,2.1-4.7,4.7
	s2.1,4.7,4.7,4.7c2.6,0,4.7-2.1,4.7-4.7S28.6,9,26,9z M26,16.9c-1.8,0-3.2-1.4-3.2-3.2s1.4-3.2,3.2-3.2c1.8,0,3.2,1.4,3.2,3.2
	S27.8,16.9,26,16.9z M23.6,23.1h-7.7c-0.4,0-0.8,0.3-0.8,0.8s0.3,0.8,0.8,0.8h7.7c0.4,0,0.8-0.3,0.8-0.8S24,23.1,23.6,23.1z
	 M17.5,13.7c0-2.6-2.1-4.7-4.7-4.7s-4.7,2.1-4.7,4.7s2.1,4.7,4.7,4.7S17.5,16.3,17.5,13.7z M12.9,16.9c-1.8,0-3.2-1.4-3.2-3.2
	s1.4-3.2,3.2-3.2s3.2,1.4,3.2,3.2S14.6,16.9,12.9,16.9z"/>
</svg>
