<?xml version="1.0" encoding="utf-8"?>
<!-- Generator: Adobe Illustrator 24.0.0, SVG Export Plug-In . SVG Version: 6.00 Build 0)  -->
<svg version="1.1" id="Calque_1" xmlns="http://www.w3.org/2000/svg" xmlns:xlink="http://www.w3.org/1999/xlink" x="0px" y="0px"
	 viewBox="0 0 42 37.2" style="enable-background:new 0 0 42 37.2;" xml:space="preserve">
<style type="text/css">
	.st0{fill:none;}
	.st1{fill:#DA6C37;}
</style>
<circle class="st0" cx="21" cy="22.6" r="7.3"/>
<circle class="st0" cx="21" cy="4" r="4"/>
<circle class="st0" cx="4" cy="33.1" r="4"/>
<circle class="st0" cx="38" cy="33.1" r="4"/>
<path class="st1" d="M38,29.1c-1.1,0-2.1,0.5-2.9,1.2l-7.4-4.9c0.4-0.9,0.6-1.8,0.6-2.8c0-3.8-2.9-6.9-6.5-7.2V8C23.6,7.6,25,6,25,4
	c0-2.2-1.8-4-4-4s-4,1.8-4,4c0,2,1.4,3.6,3.3,4v7.4c-3.7,0.4-6.5,3.5-6.5,7.2c0,1,0.2,1.9,0.6,2.8l-7.4,4.9
	c-0.7-0.8-1.8-1.2-2.9-1.2c-2.2,0-4,1.8-4,4s1.8,4,4,4s4-1.8,4-4c0-0.6-0.1-1.1-0.3-1.6l7.3-4.8c1.3,1.9,3.5,3.2,6,3.2
	c2.5,0,4.7-1.2,6-3.2l7.3,4.8c-0.2,0.5-0.3,1-0.3,1.6c0,2.2,1.8,4,4,4s4-1.8,4-4S40.2,29.1,38,29.1z M4,35.7c-1.4,0-2.5-1.1-2.5-2.5
	s1.1-2.5,2.5-2.5s2.5,1.1,2.5,2.5S5.4,35.7,4,35.7z M18.5,4c0-1.4,1.1-2.5,2.5-2.5s2.5,1.1,2.5,2.5S22.4,6.6,21,6.6S18.5,5.4,18.5,4
	z M21,28.4c-3.2,0-5.8-2.6-5.8-5.8c0-3.2,2.6-5.8,5.8-5.8c3.2,0,5.8,2.6,5.8,5.8C26.8,25.8,24.2,28.4,21,28.4z M38,35.7
	c-1.4,0-2.5-1.1-2.5-2.5s1.1-2.5,2.5-2.5s2.5,1.1,2.5,2.5S39.4,35.7,38,35.7z"/>
</svg>
