<?xml version="1.0" encoding="utf-8"?>
<!-- Generator: Adobe Illustrator 24.0.0, SVG Export Plug-In . SVG Version: 6.00 Build 0)  -->
<svg version="1.1" id="Calque_1" xmlns="http://www.w3.org/2000/svg" xmlns:xlink="http://www.w3.org/1999/xlink" x="0px" y="0px"
	 viewBox="0 0 28.7 36.7" style="enable-background:new 0 0 28.7 36.7;" xml:space="preserve">
<style type="text/css">
	.st0{fill:none;}
	.st1{fill:#DA6C37;}
</style>
<path class="st0" d="M15.2,36.4c-0.5,0.4-1.2,0.4-1.8,0L1,27.4C0.5,27,0.5,25.7,0,3.7c0.2-0.6,0.8-1,1.4-1L14.3,0l12.9,2.7
	c0.6,0,1.2,0.4,1.4,1c0,0-0.5,23.3-1,23.7L15.2,36.4z"/>
<path class="st1" d="M27.2,2.7L14.3,0L1.4,2.7c-0.6,0-1.2,0.4-1.4,1c0.5,22,0.5,23.3,1,23.7l12.4,9c0.3,0.2,0.6,0.3,0.9,0.3
	c0.3,0,0.6-0.1,0.9-0.3l12.4-9c0.5-0.4,1-23.7,1-23.7C28.5,3.1,27.9,2.7,27.2,2.7z M26.3,26.5l-12,8.7L2.2,26.4
	C2.1,25.6,2,23,1.9,22.1c-0.1-3.2-0.2-8.5-0.4-17.2l0-0.7c0.1,0,0.1,0,0.2,0l11.9-2.5V15c0,0.4,0.3,0.8,0.8,0.8s0.8-0.3,0.8-0.8V1.7
	l11.9,2.5c0.1,0,0.1,0,0.2,0C27,12.5,26.6,24,26.3,26.5z"/>
</svg>
