<?xml version="1.0" encoding="utf-8"?>
<!-- Generator: Adobe Illustrator 24.0.0, SVG Export Plug-In . SVG Version: 6.00 Build 0)  -->
<svg version="1.1" id="Calque_1" xmlns="http://www.w3.org/2000/svg" xmlns:xlink="http://www.w3.org/1999/xlink" x="0px" y="0px"
	 viewBox="0 0 39.2 39" style="enable-background:new 0 0 39.2 39;" xml:space="preserve">
<style type="text/css">
	.st0{fill:none;}
	.st1{fill:#DA6C37;}
</style>
<circle class="st0" cx="19.7" cy="19.3" r="13.4"/>
<path class="st1" d="M39.1,18.3c0-2.4-2.6-3-3.8-3.3c-0.4-0.1-0.8,0.1-0.9,0.6s0.1,0.8,0.6,0.9c1.6,0.4,2.7,0.9,2.7,1.8
	c0,0.1-0.1,0.3-0.4,0.6c-0.6,0.6-2,1.4-4.2,2c0.1-0.5,0.1-1.1,0.1-1.7c0-6.3-4.4-11.5-10.2-13C21.7,2.1,20.1,0,18.6,0
	c-2.1,0-3,2.6-3.3,4.2C15.3,4.6,15.6,5,16,5c0.4,0.1,0.8-0.2,0.8-0.6c0.1-0.6,0.6-2.9,1.8-2.9c0.6,0,1.6,1.4,2.6,4.5
	c-0.5-0.1-1-0.1-1.5-0.1c-7.4,0-13.4,6-13.4,13.4c0,0.4,0,0.8,0.1,1.1c-3.3-1-4.8-2.1-4.8-2.8c0-1.1,2.2-1.6,2.9-1.7
	c0.4-0.1,0.7-0.4,0.7-0.8c-0.1-0.4-0.4-0.7-0.8-0.7c-1.6,0.2-4.2,1.1-4.2,3.2c0,1.6,2.2,3.2,6.5,4.4c1.3,6,6.7,10.6,13.1,10.6
	c0.6,0,1.2-0.1,1.8-0.1c-0.7,2.4-1.6,3.9-2.2,4.6c-0.3,0.3-0.5,0.4-0.6,0.4c-1,0-1.4-1-1.8-2.7c-0.1-0.4-0.5-0.7-0.9-0.6
	c-0.4,0.1-0.7,0.5-0.6,0.9c0.3,1.3,0.9,3.9,3.2,3.9c0.6,0,1.1-0.3,1.7-0.9c1-1,2.1-3,2.8-6c4.7-1.2,8.3-4.9,9.5-9.6
	c2.7-0.7,4.6-1.7,5.6-2.6C38.8,19.4,39.1,18.9,39.1,18.3z M31.5,19.3c0,0.7-0.1,1.4-0.2,2.1c-1.9,0.4-4.2,0.8-7,0.9
	c0-0.8,0-1.6,0-2.4C24.3,15,23.9,11.1,23.2,8C28,9.5,31.5,14,31.5,19.3z M7.8,19.3c0-6.5,5.3-11.9,11.9-11.9c0.6,0,1.3,0.1,1.9,0.2
	c0.7,2.9,1.2,7,1.3,12.3c0,0.8,0,1.6,0,2.4c-0.9,0-1.9,0-3,0c-5.2-0.1-9.1-0.7-12-1.4C7.9,20.3,7.8,19.8,7.8,19.3z M19.7,31.1
	c-5.4,0-10-3.7-11.4-8.7c3,0.7,6.9,1.2,11.6,1.3c0.7,0,1.3,0,2,0c0.3,0,0.6,0,1,0c-0.2,2.9-0.5,5.3-0.9,7.2
	C21.1,31.1,20.4,31.1,19.7,31.1z M23.5,30.5c0.4-1.9,0.7-4.2,0.8-6.8c2.6-0.1,4.8-0.4,6.7-0.7C29.8,26.5,27,29.3,23.5,30.5z"/>
</svg>
